<?xml version="1.0" encoding="UTF-8" standalone="no"?>
<svg
   xmlns:dc="http://purl.org/dc/elements/1.1/"
   xmlns:cc="http://creativecommons.org/ns#"
   xmlns:rdf="http://www.w3.org/1999/02/22-rdf-syntax-ns#"
   xmlns:svg="http://www.w3.org/2000/svg"
   xmlns="http://www.w3.org/2000/svg"
   xmlns:sodipodi="http://sodipodi.sourceforge.net/DTD/sodipodi-0.dtd"
   xmlns:inkscape="http://www.inkscape.org/namespaces/inkscape"
   width="210mm"
   height="297mm"
   viewBox="0 0 210 297"
   version="1.1"
   id="svg951"
   inkscape:version="1.0.2 (e86c870879, 2021-01-15)"
   sodipodi:docname="smartphone_chat_3.svg">
  <defs
     id="defs945">
    <inkscape:path-effect
       effect="fillet_chamfer"
       id="path-effect1732"
       is_visible="true"
       lpeversion="1"
       satellites_param="F,0,1,1,0,19.843755,0,1 @ F,0,0,1,0,19.843755,0,1 @ F,0,1,1,0,19.843755,0,1 @ F,0,1,1,0,19.843755,0,1"
       unit="px"
       method="auto"
       mode="F"
       radius="0"
       chamfer_steps="1"
       flexible="false"
       use_knot_distance="true"
       apply_no_radius="true"
       apply_with_radius="true"
       only_selected="false"
       hide_knots="false" />
    <inkscape:path-effect
       effect="fillet_chamfer"
       id="path-effect1066"
       is_visible="true"
       lpeversion="1"
       satellites_param="F,0,1,1,0,19.843755,0,1 @ F,0,0,1,0,19.843755,0,1 @ F,0,1,1,0,19.843755,0,1 @ F,0,1,1,0,19.843755,0,1"
       unit="px"
       method="auto"
       mode="F"
       radius="0"
       chamfer_steps="1"
       flexible="false"
       use_knot_distance="true"
       apply_no_radius="true"
       apply_with_radius="true"
       only_selected="false"
       hide_knots="false" />
    <inkscape:path-effect
       effect="fillet_chamfer"
       id="path-effect984"
       is_visible="true"
       lpeversion="1"
       satellites_param="F,0,1,1,0,6.614582,0,1 @ F,0,0,1,0,6.614582,0,1 @ F,0,1,1,0,6.614582,0,1 @ F,0,1,1,0,6.614582,0,1"
       unit="px"
       method="auto"
       mode="F"
       radius="0"
       chamfer_steps="1"
       flexible="false"
       use_knot_distance="true"
       apply_no_radius="true"
       apply_with_radius="true"
       only_selected="false"
       hide_knots="false" />
    <inkscape:path-effect
       effect="fillet_chamfer"
       id="path-effect989"
       is_visible="true"
       lpeversion="1"
       satellites_param="F,0,1,1,0,6.6146045,0,1 @ F,0,0,1,0,6.6146045,0,1 @ F,0,1,1,0,6.6146045,0,1 @ F,0,1,1,0,6.6146045,0,1"
       unit="px"
       method="auto"
       mode="F"
       radius="0"
       chamfer_steps="1"
       flexible="false"
       use_knot_distance="true"
       apply_no_radius="true"
       apply_with_radius="true"
       only_selected="false"
       hide_knots="false" />
    <inkscape:path-effect
       effect="fillet_chamfer"
       id="path-effect993"
       is_visible="true"
       lpeversion="1"
       satellites_param="F,0,1,1,0,6.6146045,0,1 @ F,0,0,1,0,6.6146045,0,1 @ F,0,1,1,0,6.6146045,0,1 @ F,0,1,1,0,6.6146045,0,1"
       unit="px"
       method="auto"
       mode="F"
       radius="0"
       chamfer_steps="1"
       flexible="false"
       use_knot_distance="true"
       apply_no_radius="true"
       apply_with_radius="true"
       only_selected="false"
       hide_knots="false" />
    <inkscape:path-effect
       effect="fillet_chamfer"
       id="path-effect997"
       is_visible="true"
       lpeversion="1"
       satellites_param="F,0,1,1,0,6.6146046,0,1 @ F,0,1,1,0,6.6146046,0,1 @ F,0,0,1,0,6.6146046,0,1 @ F,0,1,1,0,6.6146046,0,1"
       unit="px"
       method="auto"
       mode="F"
       radius="0"
       chamfer_steps="1"
       flexible="false"
       use_knot_distance="true"
       apply_no_radius="true"
       apply_with_radius="true"
       only_selected="false"
       hide_knots="false" />
    <inkscape:path-effect
       effect="fillet_chamfer"
       id="path-effect1098"
       is_visible="true"
       lpeversion="1"
       satellites_param="F,0,1,1,0,6.9432584,0,1 @ F,0,0,1,0,6.9432584,0,1 @ F,0,1,1,0,6.9432584,0,1 @ F,0,1,1,0,6.9432584,0,1"
       unit="px"
       method="auto"
       mode="F"
       radius="0"
       chamfer_steps="1"
       flexible="false"
       use_knot_distance="true"
       apply_no_radius="true"
       apply_with_radius="true"
       only_selected="false"
       hide_knots="false" />
    <inkscape:path-effect
       effect="fillet_chamfer"
       id="path-effect1172"
       is_visible="true"
       lpeversion="1"
       satellites_param="F,0,1,1,0,2.9010066,0,1 @ F,0,1,1,0,2.9010066,0,1 @ F,0,0,1,0,2.9010066,0,1 @ F,0,1,1,0,2.9010066,0,1"
       unit="px"
       method="auto"
       mode="F"
       radius="0"
       chamfer_steps="1"
       flexible="false"
       use_knot_distance="true"
       apply_no_radius="true"
       apply_with_radius="true"
       only_selected="false"
       hide_knots="false" />
    <inkscape:path-effect
       effect="fillet_chamfer"
       id="path-effect1011"
       is_visible="true"
       lpeversion="1"
       satellites_param="F,0,1,1,0,6.6146045,0,1 @ F,0,0,1,0,6.6146045,0,1 @ F,0,1,1,0,6.6146045,0,1 @ F,0,1,1,0,6.6146045,0,1"
       unit="px"
       method="auto"
       mode="F"
       radius="0"
       chamfer_steps="1"
       flexible="false"
       use_knot_distance="true"
       apply_no_radius="true"
       apply_with_radius="true"
       only_selected="false"
       hide_knots="false" />
    <inkscape:path-effect
       effect="fillet_chamfer"
       id="path-effect1015"
       is_visible="true"
       lpeversion="1"
       satellites_param="F,0,1,1,0,6.614582,0,1 @ F,0,0,1,0,6.614582,0,1 @ F,0,1,1,0,6.614582,0,1 @ F,0,1,1,0,6.614582,0,1"
       unit="px"
       method="auto"
       mode="F"
       radius="0"
       chamfer_steps="1"
       flexible="false"
       use_knot_distance="true"
       apply_no_radius="true"
       apply_with_radius="true"
       only_selected="false"
       hide_knots="false" />
    <inkscape:path-effect
       effect="fillet_chamfer"
       id="path-effect1019"
       is_visible="true"
       lpeversion="1"
       satellites_param="F,0,1,1,0,6.6146046,0,1 @ F,0,1,1,0,6.6146046,0,1 @ F,0,0,1,0,6.6146046,0,1 @ F,0,1,1,0,6.6146046,0,1"
       unit="px"
       method="auto"
       mode="F"
       radius="0"
       chamfer_steps="1"
       flexible="false"
       use_knot_distance="true"
       apply_no_radius="true"
       apply_with_radius="true"
       only_selected="false"
       hide_knots="false" />
    <inkscape:path-effect
       effect="fillet_chamfer"
       id="path-effect1023"
       is_visible="true"
       lpeversion="1"
       satellites_param="F,0,1,1,0,6.6146045,0,1 @ F,0,0,1,0,6.6146045,0,1 @ F,0,1,1,0,6.6146045,0,1 @ F,0,1,1,0,6.6146045,0,1"
       unit="px"
       method="auto"
       mode="F"
       radius="0"
       chamfer_steps="1"
       flexible="false"
       use_knot_distance="true"
       apply_no_radius="true"
       apply_with_radius="true"
       only_selected="false"
       hide_knots="false" />
    <inkscape:path-effect
       effect="fillet_chamfer"
       id="path-effect1027"
       is_visible="true"
       lpeversion="1"
       satellites_param="F,0,1,1,0,6.614582,0,1 @ F,0,0,1,0,6.614582,0,1 @ F,0,1,1,0,6.614582,0,1 @ F,0,1,1,0,6.614582,0,1"
       unit="px"
       method="auto"
       mode="F"
       radius="0"
       chamfer_steps="1"
       flexible="false"
       use_knot_distance="true"
       apply_no_radius="true"
       apply_with_radius="true"
       only_selected="false"
       hide_knots="false" />
    <inkscape:path-effect
       effect="fillet_chamfer"
       id="path-effect1031"
       is_visible="true"
       lpeversion="1"
       satellites_param="F,0,1,1,0,6.6146045,0,1 @ F,0,0,1,0,6.6146045,0,1 @ F,0,1,1,0,6.6146045,0,1 @ F,0,1,1,0,6.6146045,0,1"
       unit="px"
       method="auto"
       mode="F"
       radius="0"
       chamfer_steps="1"
       flexible="false"
       use_knot_distance="true"
       apply_no_radius="true"
       apply_with_radius="true"
       only_selected="false"
       hide_knots="false" />
    <inkscape:path-effect
       effect="fillet_chamfer"
       id="path-effect1035"
       is_visible="true"
       lpeversion="1"
       satellites_param="F,0,1,1,0,6.614582,0,1 @ F,0,0,1,0,6.614582,0,1 @ F,0,1,1,0,6.614582,0,1 @ F,0,1,1,0,6.614582,0,1"
       unit="px"
       method="auto"
       mode="F"
       radius="0"
       chamfer_steps="1"
       flexible="false"
       use_knot_distance="true"
       apply_no_radius="true"
       apply_with_radius="true"
       only_selected="false"
       hide_knots="false" />
    <inkscape:path-effect
       effect="fillet_chamfer"
       id="path-effect1039"
       is_visible="true"
       lpeversion="1"
       satellites_param="F,0,1,1,0,6.614582,0,1 @ F,0,0,1,0,6.614582,0,1 @ F,0,1,1,0,6.614582,0,1 @ F,0,1,1,0,6.614582,0,1"
       unit="px"
       method="auto"
       mode="F"
       radius="0"
       chamfer_steps="1"
       flexible="false"
       use_knot_distance="true"
       apply_no_radius="true"
       apply_with_radius="true"
       only_selected="false"
       hide_knots="false" />
  </defs>
  <sodipodi:namedview
     id="base"
     pagecolor="#ffffff"
     bordercolor="#666666"
     borderopacity="1.0"
     inkscape:pageopacity="0.0"
     inkscape:pageshadow="2"
     inkscape:zoom="0.49497475"
     inkscape:cx="400"
     inkscape:cy="560"
     inkscape:document-units="mm"
     inkscape:current-layer="layer1"
     inkscape:document-rotation="0"
     showgrid="false"
     inkscape:pagecheckerboard="false"
     inkscape:window-width="3840"
     inkscape:window-height="2086"
     inkscape:window-x="0"
     inkscape:window-y="45"
     inkscape:window-maximized="1" />
  <metadata
     id="metadata948">
    <rdf:RDF>
      <cc:Work
         rdf:about="">
        <dc:format>image/svg+xml</dc:format>
        <dc:type
           rdf:resource="http://purl.org/dc/dcmitype/StillImage" />
        <dc:title></dc:title>
        <cc:license
           rdf:resource="http://creativecommons.org/publicdomain/zero/1.0/" />
      </cc:Work>
      <cc:License
         rdf:about="http://creativecommons.org/publicdomain/zero/1.0/">
        <cc:permits
           rdf:resource="http://creativecommons.org/ns#Reproduction" />
        <cc:permits
           rdf:resource="http://creativecommons.org/ns#Distribution" />
        <cc:permits
           rdf:resource="http://creativecommons.org/ns#DerivativeWorks" />
      </cc:License>
    </rdf:RDF>
  </metadata>
  <g
     inkscape:label="Layer 1"
     inkscape:groupmode="layer"
     id="layer1">
    <path
       id="path915"
       style="fill:#333333;stroke:none;stroke-width:0.264583px;stroke-linecap:butt;stroke-linejoin:miter;stroke-opacity:1"
       d="m -24.496003,-117.90527 11.008625,361.48678 c -2.7e-5,12.27931 6.550845,23.62589 17.1850047,29.76563 18.0668873,16.84541 121.7728533,82.93565 120.2965233,82.68282 l 10.6889,3.00921 c 6.04002,-1.74789 13.11814,-3.60812 17.95276,-6.31756 3.54456,-2.04648 5.72816,-5.82843 5.72834,-9.92135 v 0 -357.187494 c -4e-5,-12.279024 -6.55068,-23.625342 -17.18448,-29.765109 l -5.3e-4,-5.29e-4 v -5.29e-4 h -5.3e-4 L 3.6981559,-123.52786 v -5.3e-4 0 c -1.7380479,-1.0032 -4.9792996,-2.3128 -6.9861112,-2.31479 -0.968031,0.0588 -13.8253517,4.9716 -21.2080477,7.93791 z"
       sodipodi:nodetypes="ccccccsccccccccccc" />
    <path
       style="fill:#4d4d4d;stroke:none;stroke-width:0.264583px;stroke-linecap:butt;stroke-linejoin:miter;stroke-opacity:1"
       d="m -13.422994,-117.59651 137.481524,79.374993 a 34.370391,34.370391 60 0 1 17.1852,29.765632 V 348.73162 a 11.456796,11.456796 150 0 1 -17.18519,9.92188 L -13.422995,279.27848 A 34.370397,34.370397 60.000003 0 1 -30.60819,249.51285 l 0,-357.18749 a 11.456797,11.456797 150 0 1 17.185196,-9.92187 z"
       id="path1730"
       inkscape:path-effect="#path-effect1732"
       inkscape:original-d="m -30.60819,-127.51839 171.85192,99.21875 V 368.57538 L -30.60819,269.3566 Z" />
    <path
       style="fill:#f2f2f2;stroke:none;stroke-width:0.264583px;stroke-linecap:butt;stroke-linejoin:miter;stroke-opacity:1"
       d="M -5.6420134,-104.43513 117.08339,-33.160177 a 34.47219,34.47219 60.073319 0 1 17.15975,29.809582 V 321.78834 a 11.422963,11.422963 150.07332 0 1 -17.15975,9.87792 L -5.6420148,260.39128 A 34.472196,34.472196 60.073323 0 1 -22.80176,230.5817 l 0,-325.138905 a 11.422965,11.422965 150.07332 0 1 17.1597466,-9.877925 z"
       id="path1064"
       inkscape:path-effect="#path-effect1066"
       inkscape:original-d="m -22.80176,-114.40096 157.0449,91.20661 v 364.82644 l -157.0449,-91.20664 z" />
    <path
       id="path1068"
       style="fill:#9fd3b4;fill-opacity:1;stroke:none;stroke-width:0.264583px;stroke-linecap:butt;stroke-linejoin:miter;stroke-opacity:1"
       d="m 3.52103,-50.34164 -4.89375,9.25256 11.45667,-6.61405 v 26.45833 c -3e-5,12.27931 6.55084,23.62589 17.18499,29.76562 l 68.74103,39.6875 5.72833,9.92188 -5.72833,3.30676 v 13.23023 l 11.45666,-6.61512 v -6.61561 l 11.45667,-6.61355 h 5.3e-4 c 3.54435,-2.04661 5.72774,-5.82854 5.72781,-9.92135 V 18.44323 c 4e-5,-12.27931 -6.55084,-23.62589 -17.18499,-29.76563 L 27.26894,-57.62501 C 19.5102,-61.8164 9.94765,-54.34634 3.52103,-50.34164 Z"
       sodipodi:nodetypes="cccsccccccccccsccc" />
    <path
       id="path1070"
       style="fill:#afe9c6;fill-opacity:1;stroke:none;stroke-width:0.999999px;stroke-linecap:butt;stroke-linejoin:miter;stroke-opacity:1"
       d="m 10.09509,-52.54507 a 11.4568,11.4568 0 0 0 -11.46804,11.456 v 26.459 a 34.3704,34.3704 0 0 0 17.185,29.765 l 68.741,39.688 11.4567,19.844 v -13.23 a 11.4568,11.4568 0 0 0 17.18498,-9.921 v -26.459 a 34.3704,34.3704 0 0 0 -17.18498,-29.765 l -80.1977,-46.303 a 11.4568,11.4568 0 0 0 -5.71696,-1.534 z" />
    <path
       style="fill:#666666;fill-opacity:1;stroke:none;stroke-width:0.264583px;stroke-linecap:butt;stroke-linejoin:miter;stroke-opacity:1"
       d="M 72.438896,-4.4653488 95.352484,8.7638188 a 11.456793,11.456793 60.000001 0 1 5.728396,9.9218732 3.8189294,3.8189294 150.00003 0 1 -5.728396,3.307287 L 72.438896,8.7638112 A 11.456793,11.456793 60.000001 0 1 66.7105,-1.158062 3.8189294,3.8189294 150.00003 0 1 72.438896,-4.4653488 Z"
       id="path982"
       inkscape:path-effect="#path-effect984"
       inkscape:original-d="m 66.7105,-7.77264 34.37038,19.84375 V 25.30027 L 66.7105,5.45652 Z" />
    <path
       style="fill:#666666;fill-opacity:1;stroke:none;stroke-width:0.264583px;stroke-linecap:butt;stroke-linejoin:miter;stroke-opacity:1"
       d="m 10.392426,-40.184118 45.827158,26.458316 A 11.45683,11.45683 59.999997 0 1 61.948,-3.8038955 3.81893,3.81893 150.00036 0 1 56.219584,-0.49664172 L 10.392426,-26.954958 a 11.45683,11.45683 59.999997 0 1 -5.728416,-9.921906 3.81893,3.81893 150.00036 0 1 5.728416,-3.307254 z"
       id="path986"
       inkscape:path-effect="#path-effect989"
       inkscape:original-d="M 4.66401,-43.49142 61.948,-10.4185 V 2.81066 L 4.66401,-30.26226 Z" />
    <path
       style="fill:#666666;fill-opacity:1;stroke:none;stroke-width:0.264583px;stroke-linecap:butt;stroke-linejoin:miter;stroke-opacity:1"
       d="m 10.921596,-14.254958 45.827148,26.458316 a 11.456831,11.456831 60 0 1 5.728416,9.921906 3.8189296,3.8189296 150.00037 0 1 -5.728416,3.307254 L 10.921596,-1.0257978 a 11.456831,11.456831 60 0 1 -5.728416,-9.9219072 3.8189296,3.8189296 150.00037 0 1 5.728416,-3.307253 z"
       id="path991"
       inkscape:path-effect="#path-effect993"
       inkscape:original-d="M 5.19318,-17.56226 62.47716,15.51066 V 28.73982 L 5.19318,-4.3331 Z" />
    <path
       style="fill:#666666;fill-opacity:1;stroke:none;stroke-width:0.264583px;stroke-linecap:butt;stroke-linejoin:miter;stroke-opacity:1"
       d="m 83.895697,41.83673 11.456766,6.61456 a 3.8189456,3.8189456 149.99999 0 0 5.728417,-3.307305 11.456787,11.456787 59.999874 0 0 -5.728416,-9.921857 L 83.895696,28.607562 a 3.8189442,3.8189442 150 0 0 -5.728416,3.307303 11.456792,11.456792 59.99989 0 0 5.728417,9.921865 z"
       id="path995"
       inkscape:path-effect="#path-effect997"
       inkscape:original-d="m 78.16728,38.52943 22.9136,13.22916 V 38.52943 L 78.16728,25.30026 Z" />
    <g
       id="g1094"
       transform="translate(153.76166,-402.81889)">
      <path
         style="fill:#4d4d4d;stroke:none;stroke-width:0.264583px;stroke-linecap:butt;stroke-linejoin:miter;stroke-opacity:1"
         d="m -91.654358,489.47918 v 13.22917 l 22.91359,13.22917 v -13.22917 z"
         id="path1092" />
      <path
         id="path1082"
         style="fill:#87cdde;fill-opacity:1;stroke:none;stroke-width:0.999999px;stroke-linecap:butt;stroke-linejoin:miter;stroke-opacity:1"
         d="m -564.08789,1630.998 a 43.301303,43.301303 0 0 0 -30.64649,12.67 l -43.79492,25.2812 -12.69531,30.6367 43.79297,-25.2832 v 99.9981 a 129.90394,129.90394 0 0 0 55.41992,106.4277 l -10.41211,-6.0117 h -0.002 v 0 l -43.79102,25.2792 v 50 l 43.79102,-25.2812 h 0.002 l 42.8086,-24.7148 280.24609,161.8008 a 43.301291,43.301291 0 0 0 11.45898,4.584 l -11.95117,20.7011 43.79297,-25.2851 h 0.002 a 43.301291,43.301291 0 0 0 21.64844,-37.498 v -100 a 129.90391,129.90391 0 0 0 -64.94922,-112.4981 129.90391,129.90391 0 0 0 -0.002,0 h -0.002 l -303.10743,-175 a 43.301303,43.301303 0 0 0 -21.60742,-5.8028 z"
         transform="scale(0.26458333)" />
      <path
         id="path1084"
         style="fill:#afdde9;fill-opacity:1;stroke:none;stroke-width:0.999999px;stroke-linecap:butt;stroke-linejoin:miter;stroke-opacity:1"
         d="m -160.835,438.224 a 11.4568,11.4568 0 0 0 -11.468,11.458 v 26.458 a 34.3704,34.3704 0 0 0 14.665,28.16 l -2.757,-1.592 v 13.229 l 11.327,-6.539 74.148,42.81 a 11.4568,11.4568 0 0 0 17.185,-9.922 V 515.827 A 34.3704,34.3704 0 0 0 -74.92,486.062 l -80.198,-46.302 a 11.4568,11.4568 0 0 0 -5.717,-1.536 z" />
    </g>
    <path
       style="fill:#4d4d4d;fill-opacity:1;stroke:none;stroke-width:0.264583px;stroke-linecap:butt;stroke-linejoin:miter;stroke-opacity:1"
       d="m 55.821779,-66.504226 a 11.478923,11.478923 60.947972 0 1 5.574883,10.035852 3.8480368,3.8480368 162.87684 0 1 -6.230456,1.919496 10.145317,10.145317 59.90833 0 1 -5.633061,-9.720797 3.9146547,3.9146547 160.43826 0 1 6.288634,-2.234551 z"
       id="path1096"
       inkscape:path-effect="#path-effect1098"
       inkscape:original-d="m 49.77032,-69.90844 11.54972,6.49723 0.13039,11.81485 -12.20907,-5.73619 z" />
    <g
       id="g1719"
       transform="translate(7.97,-221.79505)">
      <path
         id="path1386"
         style="fill:#9fd3b4;fill-opacity:1;stroke:none;stroke-width:0.999999px;stroke-linecap:butt;stroke-linejoin:miter;stroke-opacity:1"
         d="m -46.455136,1352.5277 -18.496036,34.9703 43.300781,-24.998 v 100 c -1.18e-4,46.41 24.7590995,89.2947 64.951172,112.5 l 259.808599,150 21.65039,37.5 -21.65039,12.498 v 50.004 L 346.41016,1800 v -25.0039 L 389.71094,1750 h 0.002 c 13.39599,-7.7352 21.64818,-22.0291 21.64844,-37.498 v -100 c 1.2e-4,-46.41 -24.75909,-89.2947 -64.95117,-112.5 L 43.300781,1325 c -29.324409,-15.8415 -65.466315,12.3918 -89.755917,27.5277 z"
         transform="scale(0.26458333)"
         sodipodi:nodetypes="cccsccccccccccsccc" />
      <path
         id="path1393"
         style="fill:#afe9c6;fill-opacity:1;stroke:none;stroke-width:0.999999px;stroke-linecap:butt;stroke-linejoin:miter;stroke-opacity:1"
         d="m -5.7171918,355.65285 a 11.4568,11.4568 0 0 0 -11.4680402,11.456 v 26.459 a 34.3704,34.3704 0 0 0 17.18500015744,29.765 l 68.74099984256,39.688 11.4567,19.844 v -13.23 a 11.4568,11.4568 0 0 0 17.18498,-9.921 v -26.459 a 34.3704,34.3704 0 0 0 -17.18498,-29.765 L -2.3184256e-4,357.18685 A 11.4568,11.4568 0 0 0 -5.7171918,355.65285 Z" />
    </g>
    <path
       style="fill:#666666;fill-opacity:1;stroke:none;stroke-width:0.264583px;stroke-linecap:butt;stroke-linejoin:miter;stroke-opacity:1"
       d="m 20.128687,268.36876 52.520546,30.40956 a 1.6639959,1.6639959 149.90923 0 0 2.497762,-1.44737 l -7.3e-4,-0.16573 A 5.0396997,5.0396997 59.821437 0 0 72.61849,292.81833 L 20.20268,262.68352 a 1.7022303,1.7022303 150.29861 0 0 -2.550525,1.45488 4.85573,4.85573 59.654529 0 0 2.476532,4.23036 z"
       id="path1170"
       sodipodi:nodetypes="ccccc"
       inkscape:path-effect="#path-effect1172"
       inkscape:original-d="m 17.61814,266.91515 57.54164,33.31678 -0.0263,-5.96769 -57.44579,-33.02663 z" />
    <path
       style="fill:#666666;fill-opacity:1;stroke:none;stroke-width:0.264583px;stroke-linecap:butt;stroke-linejoin:miter;stroke-opacity:1"
       d="M -7.7586642,41.836732 38.068494,68.295048 a 11.45683,11.45683 59.999997 0 1 5.728416,9.921906 3.81893,3.81893 150.00036 0 1 -5.728416,3.307254 L -7.7586642,55.065892 a 11.45683,11.45683 59.999997 0 1 -5.7284158,-9.921907 3.81893,3.81893 150.00036 0 1 5.7284158,-3.307253 z"
       id="path1009"
       inkscape:path-effect="#path-effect1011"
       inkscape:original-d="M -13.48708,38.52943 43.79691,71.60235 V 84.83151 L -13.48708,51.75859 Z" />
    <path
       style="fill:#666666;fill-opacity:1;stroke:none;stroke-width:0.264583px;stroke-linecap:butt;stroke-linejoin:miter;stroke-opacity:1"
       d="m 59.394596,80.995061 22.913588,13.229168 a 11.456793,11.456793 60.000001 0 1 5.728396,9.921871 3.8189294,3.8189294 150.00003 0 1 -5.728396,3.30729 L 59.394596,94.224221 A 11.456793,11.456793 60.000001 0 1 53.6662,84.302348 3.8189294,3.8189294 150.00003 0 1 59.394596,80.995061 Z"
       id="path1013"
       inkscape:path-effect="#path-effect1015"
       inkscape:original-d="m 53.6662,77.68777 34.37038,19.84375 v 13.22916 L 53.6662,90.91693 Z" />
    <path
       style="fill:#666666;fill-opacity:1;stroke:none;stroke-width:0.264583px;stroke-linecap:butt;stroke-linejoin:miter;stroke-opacity:1"
       d="M -7.7586623,81.524239 3.6981123,88.138801 A 3.8189465,3.8189465 149.99998 0 0 9.42653,84.831495 11.456785,11.456785 59.999869 0 0 3.6981134,74.909639 L -7.7586634,68.295071 a 3.818945,3.818945 149.99999 0 0 -5.7284166,3.307304 11.456789,11.456789 59.999884 0 0 5.7284177,9.921864 z"
       id="path1017"
       inkscape:path-effect="#path-effect1019"
       inkscape:original-d="M -13.48708,78.21694 9.42653,91.4461 V 78.21694 L -13.48708,64.98777 Z" />
    <path
       style="fill:#666666;fill-opacity:1;stroke:none;stroke-width:0.264583px;stroke-linecap:butt;stroke-linejoin:miter;stroke-opacity:1"
       d="m 26.611716,88.138822 45.827158,26.458318 a 11.45683,11.45683 59.999997 0 1 5.728416,9.9219 3.81893,3.81893 150.00036 0 1 -5.728416,3.30726 L 26.611716,101.36798 A 11.45683,11.45683 59.999997 0 1 20.8833,91.446076 3.81893,3.81893 150.00036 0 1 26.611716,88.138822 Z"
       id="path1021"
       inkscape:path-effect="#path-effect1023"
       inkscape:original-d="m 20.8833,84.83152 57.28399,33.07292 V 131.1336 L 20.8833,98.06068 Z" />
    <path
       style="fill:#666666;fill-opacity:1;stroke:none;stroke-width:0.264583px;stroke-linecap:butt;stroke-linejoin:miter;stroke-opacity:1"
       d="m 3.6981259,141.05548 22.9135881,13.22917 a 11.456793,11.456793 60.000001 0 1 5.728396,9.92187 3.8189294,3.8189294 150.00003 0 1 -5.728396,3.30729 L 3.6981259,154.28464 a 11.456793,11.456793 60.000001 0 1 -5.7283959,-9.92187 3.8189294,3.8189294 150.00003 0 1 5.7283959,-3.30729 z"
       id="path1025"
       inkscape:path-effect="#path-effect1027"
       inkscape:original-d="m -2.03027,137.74819 34.37038,19.84375 V 170.8211 L -2.03027,150.97735 Z" />
    <path
       style="fill:#666666;fill-opacity:1;stroke:none;stroke-width:0.264583px;stroke-linecap:butt;stroke-linejoin:miter;stroke-opacity:1"
       d="m 46.350286,165.92631 45.827158,26.45832 a 11.45683,11.45683 59.999997 0 1 5.728416,9.9219 3.81893,3.81893 150.00036 0 1 -5.728416,3.30726 L 46.350286,179.15547 a 11.45683,11.45683 59.999997 0 1 -5.728416,-9.9219 3.81893,3.81893 150.00036 0 1 5.728416,-3.30726 z"
       id="path1029"
       inkscape:path-effect="#path-effect1031"
       inkscape:original-d="m 40.62187,162.61901 57.28399,33.07292 v 13.22916 L 40.62187,175.84817 Z" />
    <path
       style="fill:#666666;fill-opacity:1;stroke:none;stroke-width:0.264583px;stroke-linecap:butt;stroke-linejoin:miter;stroke-opacity:1"
       d="m 3.6981259,167.51382 22.9135881,13.22917 a 11.456793,11.456793 60.000001 0 1 5.728396,9.92187 3.8189294,3.8189294 150.00003 0 1 -5.728396,3.30729 L 3.6981259,180.74298 a 11.456793,11.456793 60.000001 0 1 -5.7283959,-9.92187 3.8189294,3.8189294 150.00003 0 1 5.7283959,-3.30729 z"
       id="path1033"
       inkscape:path-effect="#path-effect1035"
       inkscape:original-d="m -2.03027,164.20653 34.37038,19.84375 v 13.22916 L -2.03027,177.43569 Z" />
    <path
       style="fill:#666666;fill-opacity:1;stroke:none;stroke-width:0.264583px;stroke-linecap:butt;stroke-linejoin:miter;stroke-opacity:1"
       d="m 49.525306,193.97215 22.913588,13.22917 a 11.456793,11.456793 60.000001 0 1 5.728396,9.92187 3.8189294,3.8189294 150.00003 0 1 -5.728396,3.30729 L 49.525306,207.20131 a 11.456793,11.456793 60.000001 0 1 -5.728396,-9.92187 3.8189294,3.8189294 150.00003 0 1 5.728396,-3.30729 z"
       id="path1037"
       inkscape:path-effect="#path-effect1039"
       inkscape:original-d="m 43.79691,190.66486 34.37038,19.84375 v 13.22916 L 43.79691,203.89402 Z" />
  </g>
</svg>
